<?xml version="1.0" encoding="UTF-8" standalone="no"?>
<!DOCTYPE svg PUBLIC "-//W3C//DTD SVG 1.1//EN"
 "http://www.w3.org/Graphics/SVG/1.1/DTD/svg11.dtd">
<!-- Generated by graphviz version 2.43.0 (0)
 -->
<!-- Title: G Pages: 1 -->
<svg width="1814pt" height="498pt"
 viewBox="0.00 0.00 1814.00 498.00" xmlns="http://www.w3.org/2000/svg" xmlns:xlink="http://www.w3.org/1999/xlink">
<g id="graph0" class="graph" transform="scale(1 1) rotate(0) translate(4 494)">
<title>G</title>
<polygon fill="white" stroke="transparent" points="-4,4 -4,-494 1810,-494 1810,4 -4,4"/>
<!-- helm_release.apps -->
<g id="node1" class="node">
<title>helm_release.apps</title>
<polygon fill="none" stroke="black" points="1806,-382 1660,-382 1660,-346 1806,-346 1806,-382"/>
<text text-anchor="middle" x="1733" y="-360.3" font-family="sans-serif" font-size="14.00">helm_release.apps</text>
</g>
<!-- helm_release.postgres -->
<g id="node2" class="node">
<title>helm_release.postgres</title>
<polygon fill="none" stroke="black" points="1512.5,-490 1340.5,-490 1340.5,-454 1512.5,-454 1512.5,-490"/>
<text text-anchor="middle" x="1426.5" y="-468.3" font-family="sans-serif" font-size="14.00">helm_release.postgres</text>
</g>
<!-- helm_release.apps&#45;&gt;helm_release.postgres -->
<g id="edge1" class="edge">
<title>helm_release.apps&#45;&gt;helm_release.postgres</title>
<path fill="none" stroke="black" d="M1713.95,-382.2C1693.88,-401.25 1659.55,-430.39 1624,-445 1592.39,-457.99 1555.77,-464.97 1522.76,-468.64"/>
<polygon fill="black" stroke="black" points="1522.23,-465.18 1512.64,-469.68 1522.94,-472.14 1522.23,-465.18"/>
</g>
<!-- kubernetes_persistent_volume_claim.pvc_airflow_dags -->
<g id="node10" class="node">
<title>kubernetes_persistent_volume_claim.pvc_airflow_dags</title>
<polygon fill="none" stroke="black" points="1624,-436 1229,-436 1229,-400 1624,-400 1624,-436"/>
<text text-anchor="middle" x="1426.5" y="-414.3" font-family="sans-serif" font-size="14.00">kubernetes_persistent_volume_claim.pvc_airflow_dags</text>
</g>
<!-- helm_release.apps&#45;&gt;kubernetes_persistent_volume_claim.pvc_airflow_dags -->
<g id="edge2" class="edge">
<title>helm_release.apps&#45;&gt;kubernetes_persistent_volume_claim.pvc_airflow_dags</title>
<path fill="none" stroke="black" d="M1664.56,-382.06C1651.18,-385.3 1637.19,-388.45 1624,-391 1610.33,-393.64 1596.08,-396.12 1581.77,-398.42"/>
<polygon fill="black" stroke="black" points="1581.2,-394.97 1571.87,-399.99 1582.29,-401.88 1581.2,-394.97"/>
</g>
<!-- kubernetes_persistent_volume_claim.pvc_airflow_logs -->
<g id="node11" class="node">
<title>kubernetes_persistent_volume_claim.pvc_airflow_logs</title>
<polygon fill="none" stroke="black" points="1621,-382 1232,-382 1232,-346 1621,-346 1621,-382"/>
<text text-anchor="middle" x="1426.5" y="-360.3" font-family="sans-serif" font-size="14.00">kubernetes_persistent_volume_claim.pvc_airflow_logs</text>
</g>
<!-- helm_release.apps&#45;&gt;kubernetes_persistent_volume_claim.pvc_airflow_logs -->
<g id="edge3" class="edge">
<title>helm_release.apps&#45;&gt;kubernetes_persistent_volume_claim.pvc_airflow_logs</title>
<path fill="none" stroke="black" d="M1659.84,-364C1650.74,-364 1641.1,-364 1631.13,-364"/>
<polygon fill="black" stroke="black" points="1631.06,-360.5 1621.06,-364 1631.06,-367.5 1631.06,-360.5"/>
</g>
<!-- kubernetes_persistent_volume_claim.pvc_ml_app_data -->
<g id="node12" class="node">
<title>kubernetes_persistent_volume_claim.pvc_ml_app_data</title>
<polygon fill="none" stroke="black" points="1624,-328 1229,-328 1229,-292 1624,-292 1624,-328"/>
<text text-anchor="middle" x="1426.5" y="-306.3" font-family="sans-serif" font-size="14.00">kubernetes_persistent_volume_claim.pvc_ml_app_data</text>
</g>
<!-- helm_release.apps&#45;&gt;kubernetes_persistent_volume_claim.pvc_ml_app_data -->
<g id="edge4" class="edge">
<title>helm_release.apps&#45;&gt;kubernetes_persistent_volume_claim.pvc_ml_app_data</title>
<path fill="none" stroke="black" d="M1664.56,-345.94C1651.18,-342.7 1637.19,-339.55 1624,-337 1610.33,-334.36 1596.08,-331.88 1581.77,-329.58"/>
<polygon fill="black" stroke="black" points="1582.29,-326.12 1571.87,-328.01 1581.2,-333.03 1582.29,-326.12"/>
</g>
<!-- kubernetes_persistent_volume_claim.pvc_mlflow -->
<g id="node13" class="node">
<title>kubernetes_persistent_volume_claim.pvc_mlflow</title>
<polygon fill="none" stroke="black" points="1603,-274 1250,-274 1250,-238 1603,-238 1603,-274"/>
<text text-anchor="middle" x="1426.5" y="-252.3" font-family="sans-serif" font-size="14.00">kubernetes_persistent_volume_claim.pvc_mlflow</text>
</g>
<!-- helm_release.apps&#45;&gt;kubernetes_persistent_volume_claim.pvc_mlflow -->
<g id="edge5" class="edge">
<title>helm_release.apps&#45;&gt;kubernetes_persistent_volume_claim.pvc_mlflow</title>
<path fill="none" stroke="black" d="M1713.95,-345.8C1693.88,-326.75 1659.55,-297.61 1624,-283 1618.87,-280.89 1613.62,-278.94 1608.26,-277.14"/>
<polygon fill="black" stroke="black" points="1609.12,-273.74 1598.53,-274.05 1607.01,-280.41 1609.12,-273.74"/>
</g>
<!-- kubernetes_persistent_volume_claim.pvc_postgres -->
<g id="node14" class="node">
<title>kubernetes_persistent_volume_claim.pvc_postgres</title>
<polygon fill="none" stroke="black" points="1193,-458 825,-458 825,-422 1193,-422 1193,-458"/>
<text text-anchor="middle" x="1009" y="-436.3" font-family="sans-serif" font-size="14.00">kubernetes_persistent_volume_claim.pvc_postgres</text>
</g>
<!-- helm_release.postgres&#45;&gt;kubernetes_persistent_volume_claim.pvc_postgres -->
<g id="edge6" class="edge">
<title>helm_release.postgres&#45;&gt;kubernetes_persistent_volume_claim.pvc_postgres</title>
<path fill="none" stroke="black" d="M1340.41,-465.45C1300.63,-462.38 1251.49,-458.6 1203.38,-454.89"/>
<polygon fill="black" stroke="black" points="1203.38,-451.38 1193.14,-454.1 1202.84,-458.36 1203.38,-451.38"/>
</g>
<!-- kubernetes_secret.secret_info -->
<g id="node15" class="node">
<title>kubernetes_secret.secret_info</title>
<polygon fill="none" stroke="black" points="755,-428 533,-428 533,-392 755,-392 755,-428"/>
<text text-anchor="middle" x="644" y="-406.3" font-family="sans-serif" font-size="14.00">kubernetes_secret.secret_info</text>
</g>
<!-- helm_release.postgres&#45;&gt;kubernetes_secret.secret_info -->
<g id="edge7" class="edge">
<title>helm_release.postgres&#45;&gt;kubernetes_secret.secret_info</title>
<path fill="none" stroke="black" d="M1340.31,-479.2C1223.32,-487.3 1006.74,-495.86 825,-467 781.5,-460.09 734.08,-444.73 698.83,-431.7"/>
<polygon fill="black" stroke="black" points="699.82,-428.33 689.23,-428.09 697.36,-434.88 699.82,-428.33"/>
</g>
<!-- k3d_cluster.my_cluster -->
<g id="node3" class="node">
<title>k3d_cluster.my_cluster</title>
<polygon fill="none" stroke="black" points="176,-298 0,-298 0,-262 176,-262 176,-298"/>
<text text-anchor="middle" x="88" y="-276.3" font-family="sans-serif" font-size="14.00">k3d_cluster.my_cluster</text>
</g>
<!-- kubernetes_ingress_v1.mlflow_ingress -->
<g id="node4" class="node">
<title>kubernetes_ingress_v1.mlflow_ingress</title>
<polygon fill="none" stroke="black" points="785,-244 503,-244 503,-208 785,-208 785,-244"/>
<text text-anchor="middle" x="644" y="-222.3" font-family="sans-serif" font-size="14.00">kubernetes_ingress_v1.mlflow_ingress</text>
</g>
<!-- null_resource.wait_for_kubernetes -->
<g id="node17" class="node">
<title>null_resource.wait_for_kubernetes</title>
<polygon fill="none" stroke="black" points="463,-298 212,-298 212,-262 463,-262 463,-298"/>
<text text-anchor="middle" x="337.5" y="-276.3" font-family="sans-serif" font-size="14.00">null_resource.wait_for_kubernetes</text>
</g>
<!-- kubernetes_ingress_v1.mlflow_ingress&#45;&gt;null_resource.wait_for_kubernetes -->
<g id="edge8" class="edge">
<title>kubernetes_ingress_v1.mlflow_ingress&#45;&gt;null_resource.wait_for_kubernetes</title>
<path fill="none" stroke="black" d="M541.18,-244.06C511.98,-249.24 479.99,-254.91 450.22,-260.19"/>
<polygon fill="black" stroke="black" points="449.46,-256.77 440.22,-261.96 450.68,-263.66 449.46,-256.77"/>
</g>
<!-- kubernetes_persistent_volume.pv_airflow_dags -->
<g id="node5" class="node">
<title>kubernetes_persistent_volume.pv_airflow_dags</title>
<polygon fill="none" stroke="black" points="1181,-252 837,-252 837,-216 1181,-216 1181,-252"/>
<text text-anchor="middle" x="1009" y="-230.3" font-family="sans-serif" font-size="14.00">kubernetes_persistent_volume.pv_airflow_dags</text>
</g>
<!-- kubernetes_storage_class.local_storage -->
<g id="node16" class="node">
<title>kubernetes_storage_class.local_storage</title>
<polygon fill="none" stroke="black" points="789,-298 499,-298 499,-262 789,-262 789,-298"/>
<text text-anchor="middle" x="644" y="-276.3" font-family="sans-serif" font-size="14.00">kubernetes_storage_class.local_storage</text>
</g>
<!-- kubernetes_persistent_volume.pv_airflow_dags&#45;&gt;kubernetes_storage_class.local_storage -->
<g id="edge9" class="edge">
<title>kubernetes_persistent_volume.pv_airflow_dags&#45;&gt;kubernetes_storage_class.local_storage</title>
<path fill="none" stroke="black" d="M865.83,-252.02C843.33,-254.87 819.98,-257.83 797.25,-260.71"/>
<polygon fill="black" stroke="black" points="796.69,-257.25 787.21,-261.98 797.57,-264.19 796.69,-257.25"/>
</g>
<!-- kubernetes_persistent_volume.pv_airflow_logs -->
<g id="node6" class="node">
<title>kubernetes_persistent_volume.pv_airflow_logs</title>
<polygon fill="none" stroke="black" points="1178,-198 840,-198 840,-162 1178,-162 1178,-198"/>
<text text-anchor="middle" x="1009" y="-176.3" font-family="sans-serif" font-size="14.00">kubernetes_persistent_volume.pv_airflow_logs</text>
</g>
<!-- kubernetes_persistent_volume.pv_airflow_logs&#45;&gt;kubernetes_storage_class.local_storage -->
<g id="edge10" class="edge">
<title>kubernetes_persistent_volume.pv_airflow_logs&#45;&gt;kubernetes_storage_class.local_storage</title>
<path fill="none" stroke="black" d="M842.78,-198.11C836.65,-200.74 830.69,-203.69 825,-207 802.56,-220.05 811.19,-239.52 789,-253 786.32,-254.63 783.55,-256.17 780.73,-257.62"/>
<polygon fill="black" stroke="black" points="779.08,-254.52 771.52,-261.94 782.06,-260.86 779.08,-254.52"/>
</g>
<!-- kubernetes_persistent_volume.pv_ml_app_data -->
<g id="node7" class="node">
<title>kubernetes_persistent_volume.pv_ml_app_data</title>
<polygon fill="none" stroke="black" points="1181,-144 837,-144 837,-108 1181,-108 1181,-144"/>
<text text-anchor="middle" x="1009" y="-122.3" font-family="sans-serif" font-size="14.00">kubernetes_persistent_volume.pv_ml_app_data</text>
</g>
<!-- kubernetes_persistent_volume.pv_ml_app_data&#45;&gt;kubernetes_storage_class.local_storage -->
<g id="edge11" class="edge">
<title>kubernetes_persistent_volume.pv_ml_app_data&#45;&gt;kubernetes_storage_class.local_storage</title>
<path fill="none" stroke="black" d="M837.54,-144.12C833.17,-146.79 828.98,-149.75 825,-153 788.44,-182.92 824.97,-222.38 789,-253 787.67,-254.13 786.3,-255.23 784.91,-256.28"/>
<polygon fill="black" stroke="black" points="782.95,-253.38 776.63,-261.88 786.87,-259.18 782.95,-253.38"/>
</g>
<!-- kubernetes_persistent_volume.pv_mlflow -->
<g id="node8" class="node">
<title>kubernetes_persistent_volume.pv_mlflow</title>
<polygon fill="none" stroke="black" points="1160,-90 858,-90 858,-54 1160,-54 1160,-90"/>
<text text-anchor="middle" x="1009" y="-68.3" font-family="sans-serif" font-size="14.00">kubernetes_persistent_volume.pv_mlflow</text>
</g>
<!-- kubernetes_persistent_volume.pv_mlflow&#45;&gt;kubernetes_storage_class.local_storage -->
<g id="edge12" class="edge">
<title>kubernetes_persistent_volume.pv_mlflow&#45;&gt;kubernetes_storage_class.local_storage</title>
<path fill="none" stroke="black" d="M857.64,-78.46C845.69,-83.5 834.57,-90.19 825,-99 773.27,-146.59 839.79,-204.41 789,-253 788.04,-253.91 787.07,-254.8 786.07,-255.67"/>
<polygon fill="black" stroke="black" points="783.88,-252.94 778.07,-261.8 788.14,-258.49 783.88,-252.94"/>
</g>
<!-- kubernetes_persistent_volume.pv_postgres -->
<g id="node9" class="node">
<title>kubernetes_persistent_volume.pv_postgres</title>
<polygon fill="none" stroke="black" points="1167.5,-36 850.5,-36 850.5,0 1167.5,0 1167.5,-36"/>
<text text-anchor="middle" x="1009" y="-14.3" font-family="sans-serif" font-size="14.00">kubernetes_persistent_volume.pv_postgres</text>
</g>
<!-- kubernetes_persistent_volume.pv_postgres&#45;&gt;kubernetes_storage_class.local_storage -->
<g id="edge13" class="edge">
<title>kubernetes_persistent_volume.pv_postgres&#45;&gt;kubernetes_storage_class.local_storage</title>
<path fill="none" stroke="black" d="M850.18,-27.14C841,-31.84 832.47,-37.71 825,-45 757.84,-110.51 854.87,-186.2 789,-253 788.2,-253.81 787.38,-254.61 786.54,-255.38"/>
<polygon fill="black" stroke="black" points="784.17,-252.8 778.63,-261.83 788.59,-258.23 784.17,-252.8"/>
</g>
<!-- kubernetes_persistent_volume_claim.pvc_airflow_dags&#45;&gt;kubernetes_storage_class.local_storage -->
<g id="edge14" class="edge">
<title>kubernetes_persistent_volume_claim.pvc_airflow_dags&#45;&gt;kubernetes_storage_class.local_storage</title>
<path fill="none" stroke="black" d="M1228.81,-401.44C1110.77,-389.19 958.16,-369.31 825,-339 782.94,-329.43 736.73,-314.18 701.66,-301.58"/>
<polygon fill="black" stroke="black" points="702.67,-298.22 692.07,-298.1 700.28,-304.8 702.67,-298.22"/>
</g>
<!-- kubernetes_persistent_volume_claim.pvc_airflow_logs&#45;&gt;kubernetes_storage_class.local_storage -->
<g id="edge15" class="edge">
<title>kubernetes_persistent_volume_claim.pvc_airflow_logs&#45;&gt;kubernetes_storage_class.local_storage</title>
<path fill="none" stroke="black" d="M1231.85,-348.3C1114.05,-338.09 960.65,-323.6 825,-307 806.79,-304.77 787.58,-302.16 768.76,-299.47"/>
<polygon fill="black" stroke="black" points="769.06,-295.97 758.66,-298 768.05,-302.9 769.06,-295.97"/>
</g>
<!-- kubernetes_persistent_volume_claim.pvc_ml_app_data&#45;&gt;kubernetes_storage_class.local_storage -->
<g id="edge16" class="edge">
<title>kubernetes_persistent_volume_claim.pvc_ml_app_data&#45;&gt;kubernetes_storage_class.local_storage</title>
<path fill="none" stroke="black" d="M1228.8,-302.44C1095.71,-297.32 922.4,-290.66 799.28,-285.93"/>
<polygon fill="black" stroke="black" points="799.14,-282.42 789.02,-285.54 798.87,-289.42 799.14,-282.42"/>
</g>
<!-- kubernetes_persistent_volume_claim.pvc_mlflow&#45;&gt;kubernetes_storage_class.local_storage -->
<g id="edge17" class="edge">
<title>kubernetes_persistent_volume_claim.pvc_mlflow&#45;&gt;kubernetes_storage_class.local_storage</title>
<path fill="none" stroke="black" d="M1249.85,-261.4C1114.37,-265.57 928.79,-271.27 799.05,-275.26"/>
<polygon fill="black" stroke="black" points="798.92,-271.77 789.03,-275.57 799.13,-278.76 798.92,-271.77"/>
</g>
<!-- kubernetes_persistent_volume_claim.pvc_postgres&#45;&gt;kubernetes_storage_class.local_storage -->
<g id="edge18" class="edge">
<title>kubernetes_persistent_volume_claim.pvc_postgres&#45;&gt;kubernetes_storage_class.local_storage</title>
<path fill="none" stroke="black" d="M866.79,-421.89C852.41,-418.11 838.24,-413.53 825,-408 822.96,-407.15 730.15,-340.88 678.62,-304.05"/>
<polygon fill="black" stroke="black" points="680.59,-301.15 670.42,-298.19 676.52,-306.85 680.59,-301.15"/>
</g>
<!-- kubernetes_secret.secret_info&#45;&gt;null_resource.wait_for_kubernetes -->
<g id="edge19" class="edge">
<title>kubernetes_secret.secret_info&#45;&gt;null_resource.wait_for_kubernetes</title>
<path fill="none" stroke="black" d="M600.66,-391.92C545.71,-368.46 449.85,-327.54 390.52,-302.21"/>
<polygon fill="black" stroke="black" points="391.54,-298.84 380.97,-298.13 388.79,-305.28 391.54,-298.84"/>
</g>
<!-- kubernetes_storage_class.local_storage&#45;&gt;null_resource.wait_for_kubernetes -->
<g id="edge20" class="edge">
<title>kubernetes_storage_class.local_storage&#45;&gt;null_resource.wait_for_kubernetes</title>
<path fill="none" stroke="black" d="M498.78,-280C490.36,-280 481.91,-280 473.54,-280"/>
<polygon fill="black" stroke="black" points="473.36,-276.5 463.36,-280 473.36,-283.5 473.36,-276.5"/>
</g>
<!-- null_resource.wait_for_kubernetes&#45;&gt;k3d_cluster.my_cluster -->
<g id="edge21" class="edge">
<title>null_resource.wait_for_kubernetes&#45;&gt;k3d_cluster.my_cluster</title>
<path fill="none" stroke="black" d="M211.66,-280C203.12,-280 194.59,-280 186.22,-280"/>
<polygon fill="black" stroke="black" points="186.12,-276.5 176.12,-280 186.12,-283.5 186.12,-276.5"/>
</g>
</g>
</svg>
