<?xml version="1.0" encoding="UTF-8" standalone="no"?>
<!DOCTYPE svg PUBLIC "-//W3C//DTD SVG 1.1//EN"
 "http://www.w3.org/Graphics/SVG/1.1/DTD/svg11.dtd">
<!-- Generated by graphviz version 2.43.0 (0)
 -->
<!-- Title: G Pages: 1 -->
<svg width="1814pt" height="398pt"
 viewBox="0.00 0.00 1814.00 398.00" xmlns="http://www.w3.org/2000/svg" xmlns:xlink="http://www.w3.org/1999/xlink">
<g id="graph0" class="graph" transform="scale(1 1) rotate(0) translate(4 394)">
<title>G</title>
<polygon fill="white" stroke="transparent" points="-4,4 -4,-394 1810,-394 1810,4 -4,4"/>
<!-- helm_release.apps -->
<g id="node1" class="node">
<title>helm_release.apps</title>
<polygon fill="none" stroke="black" points="1806,-309 1660,-309 1660,-273 1806,-273 1806,-309"/>
<text text-anchor="middle" x="1733" y="-287.3" font-family="sans-serif" font-size="14.00">helm_release.apps</text>
</g>
<!-- helm_release.postgres -->
<g id="node2" class="node">
<title>helm_release.postgres</title>
<polygon fill="none" stroke="black" points="1512.5,-390 1340.5,-390 1340.5,-354 1512.5,-354 1512.5,-390"/>
<text text-anchor="middle" x="1426.5" y="-368.3" font-family="sans-serif" font-size="14.00">helm_release.postgres</text>
</g>
<!-- helm_release.apps&#45;&gt;helm_release.postgres -->
<g id="edge1" class="edge">
<title>helm_release.apps&#45;&gt;helm_release.postgres</title>
<path fill="none" stroke="black" d="M1702.39,-309.13C1681.28,-321.21 1651.84,-336.39 1624,-345 1591.8,-354.96 1555.5,-361.25 1522.94,-365.23"/>
<polygon fill="black" stroke="black" points="1522.5,-361.75 1512.97,-366.39 1523.3,-368.71 1522.5,-361.75"/>
</g>
<!-- kubernetes_persistent_volume_claim.pvc_airflow_dags -->
<g id="node9" class="node">
<title>kubernetes_persistent_volume_claim.pvc_airflow_dags</title>
<polygon fill="none" stroke="black" points="1624,-336 1229,-336 1229,-300 1624,-300 1624,-336"/>
<text text-anchor="middle" x="1426.5" y="-314.3" font-family="sans-serif" font-size="14.00">kubernetes_persistent_volume_claim.pvc_airflow_dags</text>
</g>
<!-- helm_release.apps&#45;&gt;kubernetes_persistent_volume_claim.pvc_airflow_dags -->
<g id="edge2" class="edge">
<title>helm_release.apps&#45;&gt;kubernetes_persistent_volume_claim.pvc_airflow_dags</title>
<path fill="none" stroke="black" d="M1659.84,-297.4C1651.66,-298.12 1643.05,-298.89 1634.16,-299.68"/>
<polygon fill="black" stroke="black" points="1633.65,-296.21 1624,-300.58 1634.27,-303.18 1633.65,-296.21"/>
</g>
<!-- kubernetes_persistent_volume_claim.pvc_airflow_logs -->
<g id="node10" class="node">
<title>kubernetes_persistent_volume_claim.pvc_airflow_logs</title>
<polygon fill="none" stroke="black" points="1621,-282 1232,-282 1232,-246 1621,-246 1621,-282"/>
<text text-anchor="middle" x="1426.5" y="-260.3" font-family="sans-serif" font-size="14.00">kubernetes_persistent_volume_claim.pvc_airflow_logs</text>
</g>
<!-- helm_release.apps&#45;&gt;kubernetes_persistent_volume_claim.pvc_airflow_logs -->
<g id="edge3" class="edge">
<title>helm_release.apps&#45;&gt;kubernetes_persistent_volume_claim.pvc_airflow_logs</title>
<path fill="none" stroke="black" d="M1659.84,-284.6C1650.74,-283.79 1641.1,-282.94 1631.13,-282.06"/>
<polygon fill="black" stroke="black" points="1631.33,-278.56 1621.06,-281.16 1630.71,-285.53 1631.33,-278.56"/>
</g>
<!-- kubernetes_persistent_volume_claim.pvc_mlflow -->
<g id="node11" class="node">
<title>kubernetes_persistent_volume_claim.pvc_mlflow</title>
<polygon fill="none" stroke="black" points="1603,-228 1250,-228 1250,-192 1603,-192 1603,-228"/>
<text text-anchor="middle" x="1426.5" y="-206.3" font-family="sans-serif" font-size="14.00">kubernetes_persistent_volume_claim.pvc_mlflow</text>
</g>
<!-- helm_release.apps&#45;&gt;kubernetes_persistent_volume_claim.pvc_mlflow -->
<g id="edge4" class="edge">
<title>helm_release.apps&#45;&gt;kubernetes_persistent_volume_claim.pvc_mlflow</title>
<path fill="none" stroke="black" d="M1702.39,-272.87C1681.28,-260.79 1651.84,-245.61 1624,-237 1616.08,-234.55 1607.91,-232.32 1599.61,-230.29"/>
<polygon fill="black" stroke="black" points="1600.35,-226.87 1589.81,-228.01 1598.75,-233.69 1600.35,-226.87"/>
</g>
<!-- kubernetes_persistent_volume_claim.pvc_postgres -->
<g id="node12" class="node">
<title>kubernetes_persistent_volume_claim.pvc_postgres</title>
<polygon fill="none" stroke="black" points="1193,-366 825,-366 825,-330 1193,-330 1193,-366"/>
<text text-anchor="middle" x="1009" y="-344.3" font-family="sans-serif" font-size="14.00">kubernetes_persistent_volume_claim.pvc_postgres</text>
</g>
<!-- helm_release.postgres&#45;&gt;kubernetes_persistent_volume_claim.pvc_postgres -->
<g id="edge5" class="edge">
<title>helm_release.postgres&#45;&gt;kubernetes_persistent_volume_claim.pvc_postgres</title>
<path fill="none" stroke="black" d="M1340.41,-367.09C1300.63,-364.79 1251.49,-361.95 1203.38,-359.17"/>
<polygon fill="black" stroke="black" points="1203.32,-355.66 1193.14,-358.58 1202.92,-362.65 1203.32,-355.66"/>
</g>
<!-- kubernetes_secret.secret_info -->
<g id="node13" class="node">
<title>kubernetes_secret.secret_info</title>
<polygon fill="none" stroke="black" points="755,-355 533,-355 533,-319 755,-319 755,-355"/>
<text text-anchor="middle" x="644" y="-333.3" font-family="sans-serif" font-size="14.00">kubernetes_secret.secret_info</text>
</g>
<!-- helm_release.postgres&#45;&gt;kubernetes_secret.secret_info -->
<g id="edge6" class="edge">
<title>helm_release.postgres&#45;&gt;kubernetes_secret.secret_info</title>
<path fill="none" stroke="black" d="M1340.19,-378.25C1223.5,-385.47 1007.76,-394.08 825,-375 791.46,-371.5 754.97,-364.42 723.67,-357.32"/>
<polygon fill="black" stroke="black" points="724.23,-353.85 713.7,-355.01 722.66,-360.67 724.23,-353.85"/>
</g>
<!-- k3d_cluster.my_cluster -->
<g id="node3" class="node">
<title>k3d_cluster.my_cluster</title>
<polygon fill="none" stroke="black" points="176,-244 0,-244 0,-208 176,-208 176,-244"/>
<text text-anchor="middle" x="88" y="-222.3" font-family="sans-serif" font-size="14.00">k3d_cluster.my_cluster</text>
</g>
<!-- kubernetes_ingress_v1.mlflow_ingress -->
<g id="node4" class="node">
<title>kubernetes_ingress_v1.mlflow_ingress</title>
<polygon fill="none" stroke="black" points="785,-190 503,-190 503,-154 785,-154 785,-190"/>
<text text-anchor="middle" x="644" y="-168.3" font-family="sans-serif" font-size="14.00">kubernetes_ingress_v1.mlflow_ingress</text>
</g>
<!-- null_resource.wait_for_kubernetes -->
<g id="node15" class="node">
<title>null_resource.wait_for_kubernetes</title>
<polygon fill="none" stroke="black" points="463,-244 212,-244 212,-208 463,-208 463,-244"/>
<text text-anchor="middle" x="337.5" y="-222.3" font-family="sans-serif" font-size="14.00">null_resource.wait_for_kubernetes</text>
</g>
<!-- kubernetes_ingress_v1.mlflow_ingress&#45;&gt;null_resource.wait_for_kubernetes -->
<g id="edge7" class="edge">
<title>kubernetes_ingress_v1.mlflow_ingress&#45;&gt;null_resource.wait_for_kubernetes</title>
<path fill="none" stroke="black" d="M541.18,-190.06C511.98,-195.24 479.99,-200.91 450.22,-206.19"/>
<polygon fill="black" stroke="black" points="449.46,-202.77 440.22,-207.96 450.68,-209.66 449.46,-202.77"/>
</g>
<!-- kubernetes_persistent_volume.pv_airflow_dags -->
<g id="node5" class="node">
<title>kubernetes_persistent_volume.pv_airflow_dags</title>
<polygon fill="none" stroke="black" points="1181,-198 837,-198 837,-162 1181,-162 1181,-198"/>
<text text-anchor="middle" x="1009" y="-176.3" font-family="sans-serif" font-size="14.00">kubernetes_persistent_volume.pv_airflow_dags</text>
</g>
<!-- kubernetes_storage_class.local_storage -->
<g id="node14" class="node">
<title>kubernetes_storage_class.local_storage</title>
<polygon fill="none" stroke="black" points="789,-244 499,-244 499,-208 789,-208 789,-244"/>
<text text-anchor="middle" x="644" y="-222.3" font-family="sans-serif" font-size="14.00">kubernetes_storage_class.local_storage</text>
</g>
<!-- kubernetes_persistent_volume.pv_airflow_dags&#45;&gt;kubernetes_storage_class.local_storage -->
<g id="edge8" class="edge">
<title>kubernetes_persistent_volume.pv_airflow_dags&#45;&gt;kubernetes_storage_class.local_storage</title>
<path fill="none" stroke="black" d="M865.83,-198.02C843.33,-200.87 819.98,-203.83 797.25,-206.71"/>
<polygon fill="black" stroke="black" points="796.69,-203.25 787.21,-207.98 797.57,-210.19 796.69,-203.25"/>
</g>
<!-- kubernetes_persistent_volume.pv_airflow_logs -->
<g id="node6" class="node">
<title>kubernetes_persistent_volume.pv_airflow_logs</title>
<polygon fill="none" stroke="black" points="1178,-144 840,-144 840,-108 1178,-108 1178,-144"/>
<text text-anchor="middle" x="1009" y="-122.3" font-family="sans-serif" font-size="14.00">kubernetes_persistent_volume.pv_airflow_logs</text>
</g>
<!-- kubernetes_persistent_volume.pv_airflow_logs&#45;&gt;kubernetes_storage_class.local_storage -->
<g id="edge9" class="edge">
<title>kubernetes_persistent_volume.pv_airflow_logs&#45;&gt;kubernetes_storage_class.local_storage</title>
<path fill="none" stroke="black" d="M842.78,-144.11C836.65,-146.74 830.69,-149.69 825,-153 802.56,-166.05 811.19,-185.52 789,-199 786.32,-200.63 783.55,-202.17 780.73,-203.62"/>
<polygon fill="black" stroke="black" points="779.08,-200.52 771.52,-207.94 782.06,-206.86 779.08,-200.52"/>
</g>
<!-- kubernetes_persistent_volume.pv_mlflow -->
<g id="node7" class="node">
<title>kubernetes_persistent_volume.pv_mlflow</title>
<polygon fill="none" stroke="black" points="1160,-90 858,-90 858,-54 1160,-54 1160,-90"/>
<text text-anchor="middle" x="1009" y="-68.3" font-family="sans-serif" font-size="14.00">kubernetes_persistent_volume.pv_mlflow</text>
</g>
<!-- kubernetes_persistent_volume.pv_mlflow&#45;&gt;kubernetes_storage_class.local_storage -->
<g id="edge10" class="edge">
<title>kubernetes_persistent_volume.pv_mlflow&#45;&gt;kubernetes_storage_class.local_storage</title>
<path fill="none" stroke="black" d="M857.79,-80.03C845.96,-84.77 834.82,-90.97 825,-99 788.44,-128.92 824.97,-168.38 789,-199 787.67,-200.13 786.3,-201.23 784.91,-202.28"/>
<polygon fill="black" stroke="black" points="782.95,-199.38 776.63,-207.88 786.87,-205.18 782.95,-199.38"/>
</g>
<!-- kubernetes_persistent_volume.pv_postgres -->
<g id="node8" class="node">
<title>kubernetes_persistent_volume.pv_postgres</title>
<polygon fill="none" stroke="black" points="1167.5,-36 850.5,-36 850.5,0 1167.5,0 1167.5,-36"/>
<text text-anchor="middle" x="1009" y="-14.3" font-family="sans-serif" font-size="14.00">kubernetes_persistent_volume.pv_postgres</text>
</g>
<!-- kubernetes_persistent_volume.pv_postgres&#45;&gt;kubernetes_storage_class.local_storage -->
<g id="edge11" class="edge">
<title>kubernetes_persistent_volume.pv_postgres&#45;&gt;kubernetes_storage_class.local_storage</title>
<path fill="none" stroke="black" d="M850.23,-27.86C841.09,-32.4 832.56,-38.04 825,-45 773.27,-92.59 839.79,-150.41 789,-199 788.04,-199.91 787.07,-200.8 786.07,-201.67"/>
<polygon fill="black" stroke="black" points="783.88,-198.94 778.07,-207.8 788.14,-204.49 783.88,-198.94"/>
</g>
<!-- kubernetes_persistent_volume_claim.pvc_airflow_dags&#45;&gt;kubernetes_storage_class.local_storage -->
<g id="edge12" class="edge">
<title>kubernetes_persistent_volume_claim.pvc_airflow_dags&#45;&gt;kubernetes_storage_class.local_storage</title>
<path fill="none" stroke="black" d="M1228.68,-301.47C1111.25,-290.75 959.32,-275.37 825,-257 801.5,-253.79 776.36,-249.8 752.55,-245.78"/>
<polygon fill="black" stroke="black" points="752.88,-242.28 742.43,-244.05 751.7,-249.18 752.88,-242.28"/>
</g>
<!-- kubernetes_persistent_volume_claim.pvc_airflow_logs&#45;&gt;kubernetes_storage_class.local_storage -->
<g id="edge13" class="edge">
<title>kubernetes_persistent_volume_claim.pvc_airflow_logs&#45;&gt;kubernetes_storage_class.local_storage</title>
<path fill="none" stroke="black" d="M1231.82,-254.57C1098.43,-248.08 923.59,-239.56 799.55,-233.52"/>
<polygon fill="black" stroke="black" points="799.37,-230.01 789.21,-233.02 799.03,-237 799.37,-230.01"/>
</g>
<!-- kubernetes_persistent_volume_claim.pvc_mlflow&#45;&gt;kubernetes_storage_class.local_storage -->
<g id="edge14" class="edge">
<title>kubernetes_persistent_volume_claim.pvc_mlflow&#45;&gt;kubernetes_storage_class.local_storage</title>
<path fill="none" stroke="black" d="M1249.85,-213.6C1114.37,-216.38 928.79,-220.18 799.05,-222.84"/>
<polygon fill="black" stroke="black" points="798.95,-219.34 789.03,-223.05 799.1,-226.34 798.95,-219.34"/>
</g>
<!-- kubernetes_persistent_volume_claim.pvc_postgres&#45;&gt;kubernetes_storage_class.local_storage -->
<g id="edge15" class="edge">
<title>kubernetes_persistent_volume_claim.pvc_postgres&#45;&gt;kubernetes_storage_class.local_storage</title>
<path fill="none" stroke="black" d="M877.38,-329.96C859.57,-326.11 841.69,-321.5 825,-316 773.83,-299.13 718.99,-269.93 683.47,-249.37"/>
<polygon fill="black" stroke="black" points="684.82,-246.11 674.42,-244.08 681.29,-252.15 684.82,-246.11"/>
</g>
<!-- kubernetes_secret.secret_info&#45;&gt;null_resource.wait_for_kubernetes -->
<g id="edge16" class="edge">
<title>kubernetes_secret.secret_info&#45;&gt;null_resource.wait_for_kubernetes</title>
<path fill="none" stroke="black" d="M593.4,-318.92C539.87,-299.41 454.66,-268.34 397.67,-247.57"/>
<polygon fill="black" stroke="black" points="398.67,-244.21 388.08,-244.07 396.28,-250.79 398.67,-244.21"/>
</g>
<!-- kubernetes_storage_class.local_storage&#45;&gt;null_resource.wait_for_kubernetes -->
<g id="edge17" class="edge">
<title>kubernetes_storage_class.local_storage&#45;&gt;null_resource.wait_for_kubernetes</title>
<path fill="none" stroke="black" d="M498.78,-226C490.36,-226 481.91,-226 473.54,-226"/>
<polygon fill="black" stroke="black" points="473.36,-222.5 463.36,-226 473.36,-229.5 473.36,-222.5"/>
</g>
<!-- null_resource.wait_for_kubernetes&#45;&gt;k3d_cluster.my_cluster -->
<g id="edge18" class="edge">
<title>null_resource.wait_for_kubernetes&#45;&gt;k3d_cluster.my_cluster</title>
<path fill="none" stroke="black" d="M211.66,-226C203.12,-226 194.59,-226 186.22,-226"/>
<polygon fill="black" stroke="black" points="186.12,-222.5 176.12,-226 186.12,-229.5 186.12,-222.5"/>
</g>
</g>
</svg>
